<?xml version="1.0" encoding="UTF-8"?>
<svg id="Layer_1" data-name="Layer 1" xmlns="http://www.w3.org/2000/svg" version="1.1" viewBox="0 0 1000 1000">
  <defs>
    <style>
      .cls-1 {
        fill: #1c1c1c;
      }

      .cls-1, .cls-2 {
        stroke-width: 0px;
      }

      .cls-2 {
        fill: #0056e5;
      }
    </style>
  </defs>
  <path class="cls-2" d="M206.28,529.21c.73-1.11,1.68-2.05,2.77-2.78,1.65-1.09,3.64-1.71,5.79-1.71,22.22,0,44.42.01,66.63-.01,16.81-.02,30.18-13.4,30.19-30.19,0-10.27.02-20.54-.02-30.82,0-1.45-.06-2.93-.32-4.35-2.01-11.22-8.33-19.02-19.14-22.58-10.8-3.56-20.54-1.07-28.82,6.74-2.9,2.73-5.67,5.61-8.49,8.43-5.04-10.07-15.66-16.72-27.33-16.76-.51,0-1.03,0-1.55,0h-86.49v20.06s87.63,0,88.2,0c7,.03,11.81,6.97,9.39,13.49-.27.74-.63,1.43-1.05,2.05,0,0-.01,0-.01.02-.73,1.1-1.67,2.03-2.76,2.76-1.65,1.09-3.65,1.71-5.79,1.71-22.21,0-44.42-.01-66.63.01-16.81.03-30.18,13.4-30.19,30.19,0,10.27-.02,20.54.01,30.82,0,1.45.07,2.93.32,4.35,2.01,11.22,8.33,19.02,19.13,22.58,10.81,3.56,20.55,1.07,28.83-6.74,2.9-2.73,5.67-5.61,8.49-8.43,5.03,10.07,15.66,16.73,27.32,16.76,5.17.02,88.02-.03,88.02-.03v-20.04h-88.17c-7.01-.03-11.81-6.97-9.38-13.49.27-.74.63-1.43,1.05-2.05ZM233.49,502c.1-.27.26-.53.5-.77.99-1,1.98-1.99,2.98-2.98,4.95-4.95,9.9-9.9,14.86-14.86,8.45-8.45,16.9-16.9,25.34-25.34,2.53-2.54,5.52-3.38,8.95-2.25,3.39,1.1,5.62,4.28,5.63,7.85.02,5.2,0,10.38,0,15.57v15.17c0,5.64-4.15,9.98-9.8,10.25-.34.02-.68.02-1.03.02h-44.78c-.27,0-.54,0-.8-.01-.85-.04-1.47-.44-1.79-1.22-.2-.51-.22-.99-.06-1.43ZM190.5,516.62c-8.45,8.45-16.9,16.9-25.34,25.34-2.54,2.54-5.52,3.38-8.95,2.25-3.39-1.1-5.62-4.28-5.63-7.85-.02-5.2,0-10.38,0-15.57v-15.16c0-5.64,4.15-9.98,9.8-10.25.34-.02.68-.02,1.03-.02h44.78c.26,0,.53,0,.79.01.85.04,1.47.44,1.79,1.22.2.5.22.98.06,1.42-.09.27-.26.53-.5.78-.99,1-1.98,1.99-2.97,2.98-4.96,4.95-9.91,9.9-14.86,14.86Z"/>
  <g>
    <path class="cls-1" d="M377.32,559.75c-5.55,0-10.54-1-14.96-2.99-4.43-2-7.92-4.95-10.49-8.86s-3.85-8.74-3.85-14.48c0-4.94.91-9.03,2.74-12.26,1.82-3.23,4.31-5.81,7.47-7.75,3.15-1.94,6.72-3.41,10.69-4.42,3.97-1.01,8.09-1.74,12.34-2.19,5.13-.53,9.29-1.02,12.48-1.45,3.19-.44,5.52-1.12,6.98-2.05,1.46-.93,2.19-2.38,2.19-4.36v-.34c0-4.29-1.27-7.62-3.82-9.98-2.55-2.36-6.21-3.53-11-3.53-5.05,0-9.05,1.1-12,3.31-2.95,2.2-4.93,4.81-5.96,7.81l-19.27-2.74c1.52-5.32,4.03-9.78,7.52-13.37,3.5-3.59,7.77-6.29,12.83-8.09,5.05-1.8,10.64-2.71,16.76-2.71,4.22,0,8.42.49,12.6,1.48,4.18.99,8,2.61,11.46,4.87,3.46,2.26,6.24,5.33,8.35,9.21,2.11,3.88,3.16,8.72,3.16,14.54v60.31h-19.84v-13.74h-.68c-1.25,2.43-3.01,4.7-5.27,6.81-2.26,2.11-5.09,3.8-8.49,5.07-3.4,1.27-7.38,1.91-11.94,1.91ZM382.68,544.59c4.14,0,7.73-.83,10.77-2.48,3.04-1.65,5.39-3.85,7.04-6.58,1.65-2.74,2.48-5.72,2.48-8.95v-10.32c-.65.53-1.74,1.03-3.28,1.48-1.54.46-3.26.86-5.16,1.2-1.9.34-3.78.65-5.64.91-1.86.27-3.48.49-4.85.68-3.08.42-5.83,1.1-8.27,2.05-2.43.95-4.35,2.27-5.76,3.96-1.41,1.69-2.11,3.87-2.11,6.53,0,3.8,1.39,6.67,4.16,8.61,2.77,1.94,6.31,2.91,10.6,2.91Z"/>
    <path class="cls-1" d="M514.03,513.52c0-7.67-1.07-14.3-3.19-19.87-2.13-5.56-5.04-10.15-8.75-13.77-3.71-3.61-7.96-6.28-12.77-8.01-4.81-1.73-9.91-2.6-15.31-2.6-8.36,0-15.64,1.91-21.84,5.73-6.19,3.82-11.01,9.14-14.45,15.96-3.44,6.83-5.16,14.74-5.16,23.74s1.71,17.11,5.13,23.86c3.42,6.75,8.31,11.95,14.68,15.62,6.36,3.67,13.94,5.5,22.71,5.5,6.8,0,12.85-1.04,18.13-3.11,5.28-2.07,9.62-5,13.02-8.78,3.4-3.78,5.71-8.21,6.93-13.31l-19.27-2.16c-.91,2.47-2.26,4.54-4.05,6.21-1.78,1.68-3.89,2.94-6.33,3.79-2.43.85-5.15,1.28-8.15,1.28-4.49,0-8.4-.95-11.75-2.87-3.35-1.92-5.95-4.69-7.81-8.33-1.8-3.5-2.73-7.69-2.79-12.57h60.99v-6.33ZM453.08,505.94c.2-3.43,1.08-6.62,2.66-9.55,1.77-3.28,4.25-5.94,7.44-7.98,3.19-2.03,6.9-3.05,11.12-3.05,3.95,0,7.42.89,10.4,2.68,2.99,1.78,5.32,4.23,6.99,7.32,1.67,3.1,2.52,6.63,2.57,10.58h-41.17Z"/>
    <polygon class="cls-1" points="604.34 559.72 579.67 559.75 551.6 520.5 544.08 528.56 544.08 559.69 523.45 559.69 523.45 440.25 544.08 440.25 544.08 505.59 545.51 505.59 576.98 470.42 601.09 470.42 567.15 508.22 604.34 559.72"/>
    <path class="cls-1" d="M631.94,559.75c-5.55,0-10.54-1-14.96-2.99-4.43-2-7.92-4.95-10.49-8.86-2.57-3.91-3.85-8.74-3.85-14.48,0-4.94.91-9.03,2.74-12.26,1.82-3.23,4.31-5.81,7.47-7.75,3.15-1.94,6.72-3.41,10.69-4.42,3.97-1.01,8.09-1.74,12.34-2.19,5.13-.53,9.29-1.02,12.48-1.45,3.19-.44,5.52-1.12,6.98-2.05,1.46-.93,2.19-2.38,2.19-4.36v-.34c0-4.29-1.27-7.62-3.82-9.98-2.55-2.36-6.21-3.53-11-3.53-5.05,0-9.05,1.1-12,3.31-2.95,2.2-4.93,4.81-5.96,7.81l-19.27-2.74c1.52-5.32,4.03-9.78,7.53-13.37,3.5-3.59,7.77-6.29,12.83-8.09,5.05-1.8,10.64-2.71,16.76-2.71,4.22,0,8.42.49,12.6,1.48,4.18.99,8,2.61,11.46,4.87,3.46,2.26,6.24,5.33,8.35,9.21,2.11,3.88,3.16,8.72,3.16,14.54v60.34h-19.84v-13.77h-.68c-1.25,2.43-3.01,4.7-5.27,6.81-2.26,2.11-5.09,3.8-8.49,5.07-3.4,1.27-7.38,1.91-11.94,1.91ZM637.3,544.59c4.14,0,7.73-.83,10.77-2.48,3.04-1.65,5.39-3.85,7.04-6.58,1.65-2.74,2.48-5.72,2.48-8.95v-10.32c-.65.53-1.74,1.03-3.28,1.48-1.54.46-3.26.86-5.16,1.2-1.9.34-3.78.65-5.64.91-1.86.27-3.48.49-4.85.68-3.08.42-5.83,1.1-8.27,2.05-2.43.95-4.35,2.27-5.76,3.96-1.41,1.69-2.11,3.87-2.11,6.53,0,3.8,1.39,6.67,4.16,8.61,2.77,1.94,6.31,2.91,10.6,2.91Z"/>
    <path class="cls-1" d="M736.27,557.13c-1.1.39-2.67.8-4.71,1.26-2.03.46-4.51.72-7.44.8-5.17.15-9.83-.64-13.97-2.37-4.14-1.72-7.42-4.41-9.83-8.07-2.42-3.64-3.6-8.21-3.57-13.68v-48.68h-12.43v-15.96h12.43v-20.98h20.64v20.98h17.27v15.96h-17.27v45.26c0,2.77.43,4.89,1.28,6.36.85,1.46,1.99,2.46,3.4,2.99,1.4.53,2.96.8,4.67.8,1.29,0,2.48-.09,3.57-.29,1.08-.19,1.91-.36,2.48-.51l3.48,16.13Z"/>
    <path class="cls-1" d="M743.92,559.72v-89.3h20.01v14.59h.91c1.6-5.05,4.34-8.96,8.24-11.71,3.89-2.76,8.35-4.13,13.37-4.13,1.14,0,2.42.05,3.85.14,1.43.1,2.61.24,3.56.43v18.98c-.88-.3-2.25-.58-4.13-.83-1.88-.25-3.7-.37-5.44-.37-3.76,0-7.14.81-10.12,2.42-2.98,1.62-5.33,3.85-7.04,6.7-1.71,2.85-2.57,6.14-2.57,9.86v53.22h-20.64Z"/>
    <path class="cls-1" d="M823.12,559.75c-5.55,0-10.54-1-14.96-2.99-4.43-2-7.92-4.95-10.49-8.86-2.57-3.91-3.85-8.74-3.85-14.48,0-4.94.91-9.03,2.74-12.26,1.82-3.23,4.31-5.81,7.47-7.75,3.15-1.94,6.72-3.41,10.69-4.42,3.97-1.01,8.08-1.74,12.34-2.19,5.13-.53,9.29-1.02,12.48-1.45,3.19-.44,5.52-1.12,6.98-2.05,1.46-.93,2.19-2.38,2.19-4.36v-.34c0-4.29-1.27-7.62-3.82-9.98-2.55-2.36-6.21-3.53-11-3.53-5.05,0-9.05,1.1-12,3.31-2.95,2.2-4.93,4.81-5.96,7.81l-19.27-2.74c1.52-5.32,4.03-9.78,7.52-13.37,3.5-3.59,7.77-6.29,12.83-8.09,5.05-1.8,10.64-2.71,16.76-2.71,4.22,0,8.42.49,12.6,1.48,4.18.99,8,2.61,11.46,4.87,3.46,2.26,6.24,5.33,8.35,9.21,2.11,3.88,3.16,8.72,3.16,14.54v60.34h-19.84v-13.77h-.68c-1.25,2.43-3.01,4.7-5.27,6.81s-5.09,3.8-8.49,5.07c-3.4,1.27-7.38,1.91-11.94,1.91ZM828.48,544.59c4.14,0,7.73-.83,10.77-2.48,3.04-1.65,5.39-3.85,7.04-6.58,1.65-2.74,2.48-5.72,2.48-8.95v-10.32c-.65.53-1.74,1.03-3.28,1.48s-3.26.86-5.16,1.2c-1.9.34-3.78.65-5.64.91-1.86.27-3.48.49-4.84.68-3.08.42-5.83,1.1-8.27,2.05-2.43.95-4.35,2.27-5.76,3.96-1.41,1.69-2.11,3.87-2.11,6.53,0,3.8,1.39,6.67,4.16,8.61,2.77,1.94,6.31,2.91,10.6,2.91Z"/>
  </g>
</svg>